<svg xmlns="http://www.w3.org/2000/svg" version="1.1" xmlns:xlink="http://www.w3.org/1999/xlink" xmlns:svgjs="http://svgjs.dev/svgjs" width="1500" height="1500" viewBox="0 0 1500 1500"><rect width="1500" height="1500" fill="#000000"></rect><g transform="matrix(0.6666666666666666,0,0,0.6666666666666666,249.39393939393938,588.845010083347)"><svg viewBox="0 0 396 128" data-background-color="#000000" preserveAspectRatio="xMidYMid meet" height="484" width="1500" xmlns="http://www.w3.org/2000/svg" xmlns:xlink="http://www.w3.org/1999/xlink"><g id="tight-bounds" transform="matrix(1,0,0,1,0.2400000000000091,-0.07074780165831385)"><svg viewBox="0 0 395.52 128.14149560331663" height="128.14149560331663" width="395.52"><rect width="395.52" height="128.14149560331663" fill="url(#abdee784-bc59-4552-a8c0-e31cfd9eefbc)" mask="url(#55046e4e-7f5d-4d40-90b5-96801ff3bf9e)" data-fill-palette-color="tertiary"></rect><g><svg viewBox="0 0 395.52 128.14149560331663" height="128.14149560331663" width="395.52"><g><svg viewBox="0 0 395.52 128.14149560331663" height="128.14149560331663" width="395.52"><g id="textblocktransform"><svg viewBox="0 0 395.52 128.14149560331663" height="128.14149560331663" width="395.52" id="textblock"><g><rect width="395.52" height="97.23145191799544" fill="none" stroke-width="9.018103199999999" stroke="url(#abdee784-bc59-4552-a8c0-e31cfd9eefbc)" data-fill-palette-color="none" data-stroke-palette-color="tertiary"></rect><rect width="395.52" height="30.910043685321185" y="97.23145191799544" fill="url(#abdee784-bc59-4552-a8c0-e31cfd9eefbc)" data-fill-palette-color="tertiary"></rect></g><g><svg viewBox="0 0 395.52 97.23145191799544" height="97.23145191799544" width="395.52"><g transform="matrix(1,0,0,1,23.607599999999998,23.607599999999998)"><svg width="348.3048" viewBox="4.91 -37.99 267.91999999999996 38.480000000000004" height="50.01625191799545" data-palette-color="#ffffff"><path d="M27.54-25.29L27.54-25.29Q27.54-19.87 23.84-16.96 20.14-14.04 13.26-14.04L13.26-14.04 9.06-14.04 9.06 0 4.91 0 4.91-35.69 14.16-35.69Q27.54-35.69 27.54-25.29ZM9.06-32.1L9.06-17.6 12.79-17.6Q18.31-17.6 20.78-19.38 23.24-21.17 23.24-25.1L23.24-25.1Q23.24-28.64 20.92-30.37 18.6-32.1 13.7-32.1L13.7-32.1 9.06-32.1ZM53.85 0L50.85 0 50.05-3.81 49.85-3.81Q47.85-1.29 45.86-0.4 43.87 0.49 40.89 0.49L40.89 0.49Q36.91 0.49 34.65-1.56 32.39-3.61 32.39-7.4L32.39-7.4Q32.39-15.5 45.36-15.89L45.36-15.89 49.9-16.04 49.9-17.7Q49.9-20.85 48.54-22.35 47.19-23.85 44.21-23.85L44.21-23.85Q40.87-23.85 36.64-21.8L36.64-21.8 35.4-24.9Q37.38-25.98 39.73-26.59 42.09-27.2 44.46-27.2L44.46-27.2Q49.24-27.2 51.55-25.07 53.85-22.95 53.85-18.26L53.85-18.26 53.85 0ZM41.7-2.86L41.7-2.86Q45.48-2.86 47.64-4.93 49.8-7.01 49.8-10.74L49.8-10.74 49.8-13.16 45.75-12.99Q40.92-12.82 38.78-11.49 36.64-10.16 36.64-7.35L36.64-7.35Q36.64-5.15 37.97-4 39.3-2.86 41.7-2.86ZM72.8 0L68.06 0 57.91-26.76 62.25-26.76 68.01-10.89Q69.97-5.32 70.31-3.66L70.31-3.66 70.5-3.66Q70.77-4.96 72.2-9.02 73.63-13.09 78.61-26.76L78.61-26.76 82.95-26.76 72.8 0ZM106.71 0L103.7 0 102.9-3.81 102.7-3.81Q100.7-1.29 98.71-0.4 96.72 0.49 93.74 0.49L93.74 0.49Q89.76 0.49 87.5-1.56 85.25-3.61 85.25-7.4L85.25-7.4Q85.25-15.5 98.21-15.89L98.21-15.89 102.75-16.04 102.75-17.7Q102.75-20.85 101.4-22.35 100.04-23.85 97.06-23.85L97.06-23.85Q93.72-23.85 89.49-21.8L89.49-21.8 88.25-24.9Q90.23-25.98 92.58-26.59 94.94-27.2 97.31-27.2L97.31-27.2Q102.09-27.2 104.4-25.07 106.71-22.95 106.71-18.26L106.71-18.26 106.71 0ZM94.55-2.86L94.55-2.86Q98.33-2.86 100.49-4.93 102.65-7.01 102.65-10.74L102.65-10.74 102.65-13.16 98.6-12.99Q93.77-12.82 91.63-11.49 89.49-10.16 89.49-7.35L89.49-7.35Q89.49-5.15 90.83-4 92.16-2.86 94.55-2.86ZM137.42 0L133.36 0 133.36-17.31Q133.36-20.58 131.87-22.19 130.39-23.8 127.21-23.8L127.21-23.8Q123.01-23.8 121.06-21.53 119.11-19.26 119.11-14.04L119.11-14.04 119.11 0 115.05 0 115.05-26.76 118.35-26.76 119.01-23.1 119.2-23.1Q120.45-25.07 122.7-26.16 124.94-27.25 127.7-27.25L127.7-27.25Q132.53-27.25 134.98-24.91 137.42-22.58 137.42-17.46L137.42-17.46 137.42 0ZM186.07 0L181.77 0 177.33-11.35 163.02-11.35 158.63 0 154.43 0 168.54-35.84 172.03-35.84 186.07 0ZM164.49-15.09L176.03-15.09 171.88-26.15Q171.08-28.25 170.22-31.3L170.22-31.3Q169.69-28.96 168.69-26.15L168.69-26.15 164.49-15.09ZM212.73 0L208.67 0 208.67-17.31Q208.67-20.58 207.18-22.19 205.7-23.8 202.52-23.8L202.52-23.8Q198.32-23.8 196.37-21.53 194.42-19.26 194.42-14.04L194.42-14.04 194.42 0 190.36 0 190.36-26.76 193.66-26.76 194.32-23.1 194.51-23.1Q195.76-25.07 198-26.16 200.25-27.25 203.01-27.25L203.01-27.25Q207.84-27.25 210.29-24.91 212.73-22.58 212.73-17.46L212.73-17.46 212.73 0ZM239.8 0L239.26-3.59 239.04-3.59Q236.23 0.49 230.64 0.49L230.64 0.49Q225.4 0.49 222.48-3.1 219.56-6.69 219.56-13.31L219.56-13.31Q219.56-19.92 222.49-23.58 225.42-27.25 230.64-27.25L230.64-27.25Q236.09-27.25 238.99-23.29L238.99-23.29 239.31-23.29 239.14-25.22 239.04-27.1 239.04-37.99 243.1-37.99 243.1 0 239.8 0ZM231.16-2.91L231.16-2.91Q235.31-2.91 237.17-5.16 239.04-7.42 239.04-12.45L239.04-12.45 239.04-13.31Q239.04-18.99 237.15-21.42 235.26-23.85 231.11-23.85L231.11-23.85Q227.54-23.85 225.65-21.08 223.76-18.31 223.76-13.26L223.76-13.26Q223.76-8.13 225.64-5.52 227.52-2.91 231.16-2.91ZM262.99 0.49L262.99 0.49Q257.06 0.49 253.63-3.13 250.2-6.74 250.2-13.16L250.2-13.16Q250.2-19.63 253.38-23.44 256.57-27.25 261.94-27.25L261.94-27.25Q266.97-27.25 269.9-23.94 272.83-20.63 272.83-15.21L272.83-15.21 272.83-12.65 254.4-12.65Q254.52-7.93 256.78-5.49 259.04-3.05 263.14-3.05L263.14-3.05Q267.46-3.05 271.68-4.86L271.68-4.86 271.68-1.25Q269.53-0.32 267.62 0.09 265.7 0.49 262.99 0.49ZM261.89-23.85L261.89-23.85Q258.67-23.85 256.75-21.75 254.84-19.65 254.49-15.94L254.49-15.94 268.48-15.94Q268.48-19.78 266.77-21.81 265.07-23.85 261.89-23.85Z" opacity="1" transform="matrix(1,0,0,1,0,0)" fill="#ffffff" class="wordmark-text-0" data-fill-palette-color="primary" id="text-0"></path></svg></g></svg></g></svg></g></svg></g></svg></g><defs></defs><mask id="55046e4e-7f5d-4d40-90b5-96801ff3bf9e"><g id="SvgjsG4301"><svg viewBox="0 0 395.52 128.14149560331663" height="128.14149560331663" width="395.52"><g><svg viewBox="0 0 395.52 128.14149560331663" height="128.14149560331663" width="395.52"><g><svg viewBox="0 0 395.52 128.14149560331663" height="128.14149560331663" width="395.52"><g id="SvgjsG4300"><svg viewBox="0 0 395.52 128.14149560331663" height="128.14149560331663" width="395.52" id="SvgjsSvg4299"><g><rect width="395.52" height="97.23145191799544" fill="black" stroke-width="9.018103199999999" stroke="url(#abdee784-bc59-4552-a8c0-e31cfd9eefbc)" data-stroke-palette-color="tertiary"></rect><rect width="395.52" height="30.910043685321185" y="97.23145191799544" fill="white"></rect></g><g><svg viewBox="0 0 395.52 97.23145191799544" height="97.23145191799544" width="395.52"><g transform="matrix(1,0,0,1,23.607599999999998,23.607599999999998)"><svg width="348.3048" viewBox="4.91 -37.99 267.91999999999996 38.480000000000004" height="50.01625191799545" data-palette-color="#ffffff"><path d="M27.54-25.29L27.54-25.29Q27.54-19.87 23.84-16.96 20.14-14.04 13.26-14.04L13.26-14.04 9.06-14.04 9.06 0 4.91 0 4.91-35.69 14.16-35.69Q27.54-35.69 27.54-25.29ZM9.06-32.1L9.06-17.6 12.79-17.6Q18.31-17.6 20.78-19.38 23.24-21.17 23.24-25.1L23.24-25.1Q23.24-28.64 20.92-30.37 18.6-32.1 13.7-32.1L13.7-32.1 9.06-32.1ZM53.85 0L50.85 0 50.05-3.81 49.85-3.81Q47.85-1.29 45.86-0.4 43.87 0.49 40.89 0.49L40.89 0.49Q36.91 0.49 34.65-1.56 32.39-3.61 32.39-7.4L32.39-7.4Q32.39-15.5 45.36-15.89L45.36-15.89 49.9-16.04 49.9-17.7Q49.9-20.85 48.54-22.35 47.19-23.85 44.21-23.85L44.21-23.85Q40.87-23.85 36.64-21.8L36.64-21.8 35.4-24.9Q37.38-25.98 39.73-26.59 42.09-27.2 44.46-27.2L44.46-27.2Q49.24-27.2 51.55-25.07 53.85-22.95 53.85-18.26L53.85-18.26 53.85 0ZM41.7-2.86L41.7-2.86Q45.48-2.86 47.64-4.93 49.8-7.01 49.8-10.74L49.8-10.74 49.8-13.16 45.75-12.99Q40.92-12.82 38.78-11.49 36.64-10.16 36.64-7.35L36.64-7.35Q36.64-5.15 37.97-4 39.3-2.86 41.7-2.86ZM72.8 0L68.06 0 57.91-26.76 62.25-26.76 68.01-10.89Q69.97-5.32 70.31-3.66L70.31-3.66 70.5-3.66Q70.77-4.96 72.2-9.02 73.63-13.09 78.61-26.76L78.61-26.76 82.95-26.76 72.8 0ZM106.71 0L103.7 0 102.9-3.81 102.7-3.81Q100.7-1.29 98.71-0.4 96.72 0.49 93.74 0.49L93.74 0.49Q89.76 0.49 87.5-1.56 85.25-3.61 85.25-7.4L85.25-7.4Q85.25-15.5 98.21-15.89L98.21-15.89 102.75-16.04 102.75-17.7Q102.75-20.85 101.4-22.35 100.04-23.85 97.06-23.85L97.06-23.85Q93.72-23.85 89.49-21.8L89.49-21.8 88.25-24.9Q90.23-25.98 92.58-26.59 94.94-27.2 97.31-27.2L97.31-27.2Q102.09-27.2 104.4-25.07 106.71-22.95 106.71-18.26L106.71-18.26 106.71 0ZM94.55-2.86L94.55-2.86Q98.33-2.86 100.49-4.93 102.65-7.01 102.65-10.74L102.65-10.74 102.65-13.16 98.6-12.99Q93.77-12.82 91.63-11.49 89.49-10.16 89.49-7.35L89.49-7.35Q89.49-5.15 90.83-4 92.16-2.86 94.55-2.86ZM137.42 0L133.36 0 133.36-17.31Q133.36-20.58 131.87-22.19 130.39-23.8 127.21-23.8L127.21-23.8Q123.01-23.8 121.06-21.53 119.11-19.26 119.11-14.04L119.11-14.04 119.11 0 115.05 0 115.05-26.76 118.35-26.76 119.01-23.1 119.2-23.1Q120.45-25.07 122.7-26.16 124.94-27.25 127.7-27.25L127.7-27.25Q132.53-27.25 134.98-24.91 137.42-22.58 137.42-17.46L137.42-17.46 137.42 0ZM186.07 0L181.77 0 177.33-11.35 163.02-11.35 158.63 0 154.43 0 168.54-35.84 172.03-35.84 186.07 0ZM164.49-15.09L176.03-15.09 171.88-26.15Q171.08-28.25 170.22-31.3L170.22-31.3Q169.69-28.96 168.69-26.15L168.69-26.15 164.49-15.09ZM212.73 0L208.67 0 208.67-17.31Q208.67-20.58 207.18-22.19 205.7-23.8 202.52-23.8L202.52-23.8Q198.32-23.8 196.37-21.53 194.42-19.26 194.42-14.04L194.42-14.04 194.42 0 190.36 0 190.36-26.76 193.66-26.76 194.32-23.1 194.51-23.1Q195.76-25.07 198-26.16 200.25-27.25 203.01-27.25L203.01-27.25Q207.84-27.25 210.29-24.91 212.73-22.58 212.73-17.46L212.73-17.46 212.73 0ZM239.8 0L239.26-3.59 239.04-3.59Q236.23 0.49 230.64 0.49L230.64 0.49Q225.4 0.49 222.48-3.1 219.56-6.69 219.56-13.31L219.56-13.31Q219.56-19.92 222.49-23.58 225.42-27.25 230.64-27.25L230.64-27.25Q236.09-27.25 238.99-23.29L238.99-23.29 239.31-23.29 239.14-25.22 239.04-27.1 239.04-37.99 243.1-37.99 243.1 0 239.8 0ZM231.16-2.91L231.16-2.91Q235.31-2.91 237.17-5.16 239.04-7.42 239.04-12.45L239.04-12.45 239.04-13.31Q239.04-18.99 237.15-21.42 235.26-23.85 231.11-23.85L231.11-23.85Q227.54-23.85 225.65-21.08 223.76-18.31 223.76-13.26L223.76-13.26Q223.76-8.13 225.64-5.52 227.52-2.91 231.16-2.91ZM262.99 0.49L262.99 0.49Q257.06 0.49 253.63-3.13 250.2-6.74 250.2-13.16L250.2-13.16Q250.2-19.63 253.38-23.44 256.57-27.25 261.94-27.25L261.94-27.25Q266.97-27.25 269.9-23.94 272.83-20.63 272.83-15.21L272.83-15.21 272.83-12.65 254.4-12.65Q254.52-7.93 256.78-5.49 259.04-3.05 263.14-3.05L263.14-3.05Q267.46-3.05 271.68-4.86L271.68-4.86 271.68-1.25Q269.53-0.32 267.62 0.09 265.7 0.49 262.99 0.49ZM261.89-23.85L261.89-23.85Q258.67-23.85 256.75-21.75 254.84-19.65 254.49-15.94L254.49-15.94 268.48-15.94Q268.48-19.78 266.77-21.81 265.07-23.85 261.89-23.85Z" opacity="1" transform="matrix(1,0,0,1,0,0)" fill="black" class="wordmark-text-0" id="SvgjsPath4298"></path></svg></g></svg></g></svg></g></svg></g></svg></g><defs><mask></mask></defs></svg><rect width="395.52" height="128.14149560331663" fill="black" stroke="none" visibility="hidden"></rect></g></mask><linearGradient x1="0" x2="1" y1="0.578" y2="0.595" id="abdee784-bc59-4552-a8c0-e31cfd9eefbc"><stop stop-color="#6ee2f5" offset="0"></stop><stop stop-color="#6454f0" offset="1"></stop></linearGradient></svg><rect width="395.52" height="128.14149560331663" fill="none" stroke="none" visibility="hidden"></rect></g></svg></g></svg>